<?xml version="1.0" ?>
<!DOCTYPE svg  PUBLIC '-//W3C//DTD SVG 1.1//EN'  'http://www.w3.org/Graphics/SVG/1.1/DTD/svg11.dtd'>
<svg enable-background="new 0 0 75 75" height="300px" version="1.1" viewBox="0 0 75 75" width="300px" xml:space="preserve" xmlns="http://www.w3.org/2000/svg" xmlns:xlink="http://www.w3.org/1999/xlink">
<g id="Layer_1">
<g>
<g>
<g>
<g>
<g>
<g>
<line fill="#BC2A54" x1="20.62" x2="34.876" y1="55.846" y2="55.844"/>
</g>
<g>
<line fill="#BC2A54" x1="25.308" x2="39.564" y1="51.157" y2="51.157"/>
</g>
</g>
<g>
<g>
<line fill="#BC2A54" x1="16.884" x2="25.132" y1="65.602" y2="65.6"/>
</g>
<g>
<line fill="#BC2A54" x1="15.835" x2="29.388" y1="60.913" y2="60.913"/>
</g>
</g>
<g>
<g>
<line fill="#BC2A54" x1="30.891" x2="45.147" y1="45.575" y2="45.575"/>
</g><g><line fill="#BC2A54" x1="35.58" x2="49.836" y1="40.885" y2="40.885"/></g></g><g><g><line fill="#BC2A54" x1="41.163" x2="55.419" y1="35.301" y2="35.301"/></g><g><line fill="#BC2A54" x1="45.851" x2="58.562" y1="30.614" y2="30.614"/></g></g><g><g><line fill="#BC2A54" x1="50.634" x2="59.44" y1="25.032" y2="25.032"/></g><g><line fill="#BC2A54" x1="49.237" x2="59.44" y1="20.342" y2="20.342"/></g></g><g><g><line fill="#BC2A54" x1="29.777" x2="57.48" y1="14.758" y2="14.758"/></g><g><line fill="#BC2A54" x1="32.583" x2="52.99" y1="10.071" y2="10.071"/></g></g></g><g><path d="M55.082,11.395c-6.68-6.682-17.551-6.682-24.242,0c-1.967,1.967-1.967,5.162-0.006,7.133       c1.976,1.967,5.167,1.961,7.133,0c2.755-2.756,7.232-2.756,9.982,0c2.76,2.744,2.76,7.229,0,9.982L16.541,59.924       c-0.674,0.668-1.094,1.477-1.309,2.328c0.01,0.01,0.023,0.021,0.035,0.031c-0.117-0.004-0.217,0.012-0.277,0.072       c-0.396,0.396,0.665,2.102,2.371,3.809c1.707,1.705,3.411,2.766,3.808,2.369c0.062-0.062,0.077-0.166,0.07-0.289l0.116,0.117       c0.848-0.227,1.651-0.646,2.309-1.305l31.424-31.422C61.763,28.958,61.763,18.081,55.082,11.395z" fill="#E83862"/></g><g><path d="M21.168,68.534c0.062-0.062,0.077-0.166,0.07-0.289l0.116,0.117c0.848-0.227,1.651-0.646,2.309-1.305       l31.424-31.422c2.999-2.998,4.639-6.846,4.943-10.779c-0.305-3.936-1.945-7.789-4.949-10.795c-6.68-6.68-17.551-6.68-24.242,0       c-0.642,0.641-1.052,1.418-1.275,2.234c0.223,0.816,0.632,1.592,1.27,2.232c1.976,1.967,5.167,1.961,7.133,0       c2.755-2.756,7.232-2.756,9.982,0c1.721,1.711,2.367,4.098,1.943,6.32c0.424,2.223-0.223,4.611-1.943,6.33L16.541,62.59       c-0.43,0.428-0.746,0.914-0.982,1.43c0.432,0.643,1.049,1.389,1.803,2.145C19.068,67.87,20.772,68.93,21.168,68.534z" fill="#BC2A54"/></g><g><g><path d="M33.786,9.051h18.354C46.559,5.51,39.372,5.51,33.786,9.051z" fill="#FFFFFF"/></g><g><path d="M57.673,14.758H29.382c-0.055,1.357,0.42,2.732,1.451,3.77c0.026,0.027,0.059,0.043,0.086,0.07h6.962        c0.026-0.027,0.059-0.043,0.085-0.07c2.755-2.756,7.232-2.756,9.982,0c0.022,0.023,0.041,0.047,0.062,0.07h11.364        C58.979,17.266,58.4,15.981,57.673,14.758z" fill="#D9F1FF"/></g><g><path d="M59.453,28.143c0.35-1.256,0.545-2.543,0.604-3.838H49.97c-0.154,1.383-0.72,2.727-1.689,3.838H59.453        z" fill="#D9F1FF"/></g><g><path d="M42.609,33.852l-3.838,3.838h14.263l2.054-2.055c0.564-0.562,1.062-1.166,1.529-1.783H42.609z" fill="#D9F1FF"/></g><g><polygon fill="#FFFFFF" points="43.486,47.237 47.326,43.399 33.064,43.399 29.226,47.237       "/></g><g><polygon fill="#D9F1FF" points="35.73,43.399 31.892,47.237 43.486,47.237 45.005,45.717 47.326,43.399       "/></g><g><polygon fill="#FFFFFF" points="33.939,56.784 37.778,52.944 23.519,52.944 19.681,56.784       "/></g><g><polygon fill="#D9F1FF" points="33.939,56.784 36.234,54.489 37.778,52.944 26.185,52.944 22.347,56.784       "/></g><g><path d="M28.231,62.491H14.937c-0.152,0.553,0.856,2.105,2.424,3.674c0.059,0.057,0.115,0.107,0.174,0.164        h6.857L28.231,62.491z" fill="#D9F1FF"/></g></g></g><g><g><path d="M20.925,69.367c-1.351,0-3.647-2.226-4.094-2.671c-1.089-1.089-3.498-3.743-2.372-4.87       c0.046-0.046,0.096-0.087,0.149-0.122c0.284-0.892,0.755-1.668,1.404-2.312L47.418,27.98c1.195-1.192,1.852-2.78,1.85-4.47       c-0.001-1.686-0.658-3.266-1.849-4.45c-1.19-1.193-2.774-1.849-4.46-1.849c-1.687,0-3.272,0.656-4.463,1.847       c-1.094,1.092-2.549,1.692-4.096,1.692c-1.546,0-3.001-0.601-4.097-1.691c-2.253-2.265-2.25-5.94,0.005-8.195       c3.378-3.374,7.873-5.231,12.656-5.231s9.275,1.858,12.647,5.231c6.974,6.978,6.977,18.328,0.006,25.301L24.194,67.587       c-0.675,0.676-1.504,1.163-2.469,1.449c-0.008,0.009-0.017,0.019-0.026,0.027C21.561,69.202,21.314,69.367,20.925,69.367z        M15.736,62.849c0.22,0.501,0.902,1.532,2.155,2.786c1.257,1.255,2.29,1.937,2.789,2.155c0.075-0.091,0.17-0.164,0.28-0.208       c0.168-0.067,0.35-0.082,0.513-0.038c0.647-0.219,1.205-0.56,1.661-1.016l31.424-31.422c6.386-6.388,6.383-16.787-0.006-23.18       c-3.089-3.09-7.204-4.792-11.586-4.792s-8.501,1.702-11.596,4.792c-1.671,1.671-1.673,4.396-0.004,6.073       c0.81,0.806,1.889,1.251,3.036,1.251s2.225-0.445,3.036-1.253c1.474-1.474,3.435-2.286,5.523-2.286s4.048,0.812,5.52,2.287       c1.474,1.465,2.287,3.423,2.289,5.51c0.002,2.092-0.812,4.057-2.29,5.533L17.071,60.455c-0.511,0.506-0.872,1.127-1.076,1.848       c-0.002,0.09-0.021,0.18-0.057,0.264C15.89,62.676,15.821,62.772,15.736,62.849z" fill="#093260"/></g></g></g><g><g><g><g><path d="M28.208,37.083c0-1.455-1.181-2.637-2.637-2.637h-2.398v-0.002h-5.274        c-1.456,0-2.638-1.18-2.637-2.637l-0.001,6.439c0,1.457,1.182,2.637,2.638,2.637h2.397v0.002h5.275        c1.456,0,2.637,1.182,2.637,2.637V37.083z" fill="#1BC1A9"/></g><g><path d="M36.905,39.731c0-1.457-1.181-2.637-2.638-2.637h-2.396v-0.002h-3.662v6.43l6.059,0.01        c1.457,0,2.638,1.182,2.638,2.637V39.731z" fill="#1BC1A9"/></g><g><path d="M36.905,43.108v-3.377c0-1.457-1.181-2.637-2.638-2.637h-2.168c-0.084,0.67-0.141,1.359-0.141,2.072        c0,1.574,0.227,3.047,0.61,4.363l1.698,0.002c0.884,0,1.66,0.438,2.141,1.105C36.597,44.155,36.766,43.647,36.905,43.108z" fill="#0CAFAF"/></g><g><path d="M28.208,44.272c-0.414,0-0.75-0.336-0.75-0.75c0-1.041-0.846-1.887-1.887-1.887l-7.673-0.002        c-1.868,0-3.387-1.519-3.387-3.387l0.001-6.439v0c0-0.414,0.336-0.75,0.75-0.75c0,0,0,0,0,0c0.414,0,0.75,0.336,0.75,0.75v0        c0,0.504,0.196,0.978,0.552,1.334c0.356,0.356,0.83,0.552,1.334,0.552l7.673,0.002c1.867,0,3.386,1.519,3.386,3.387v6.439        C28.958,43.936,28.623,44.272,28.208,44.272z M16.012,34.621l0,3.625c0,1.041,0.847,1.887,1.888,1.887l7.673,0.002        c0.698,0,1.347,0.212,1.886,0.575v-3.628c0-1.041-0.846-1.887-1.887-1.887l-7.673-0.002        C17.217,35.194,16.565,34.994,16.012,34.621z" fill="#093260"/></g><g><path d="M36.905,46.918c-0.414,0-0.75-0.336-0.75-0.75c0-1.041-0.847-1.887-1.888-1.887l-6.06-0.01        c-0.414,0-0.749-0.336-0.749-0.75v-6.43c0-0.414,0.336-0.75,0.75-0.75l6.059,0.002c1.868,0,3.387,1.519,3.387,3.387v6.438        C37.655,46.583,37.319,46.918,36.905,46.918z M28.958,42.773l5.31,0.009c0.698,0,1.347,0.212,1.887,0.576v-3.626        c0-1.041-0.847-1.887-1.888-1.887l-5.309-0.001V42.773z" fill="#093260"/></g></g><g><g><path d="M46.006,54.881c1.456-0.002,2.637,1.18,2.637,2.637v2.398h0.002v5.273        c0,1.457,1.181,2.639,2.637,2.637l-6.438,0.002c-1.456,0-2.637-1.182-2.637-2.639l-0.001,0.781h-0.001v-8.453        c0-1.457-1.182-2.637-2.637-2.637H46.006z" fill="#1BC1A9"/></g><g><path d="M43.359,46.184c1.457,0,2.638,1.182,2.638,2.637v2.398h0.001v3.662h-6.43l-0.01-6.061        c0-1.455-1.182-2.637-2.637-2.637H43.359z" fill="#1BC1A9"/></g><g><path d="M39.982,46.184h3.377c1.457,0,2.638,1.182,2.638,2.637v2.17c-0.671,0.084-1.36,0.141-2.074,0.141        c-1.573,0-3.046-0.227-4.362-0.611l-0.002-1.699c0-0.883-0.438-1.66-1.105-2.139C38.935,46.493,39.443,46.323,39.982,46.184z" fill="#0CAFAF"/></g><g><path d="M44.843,68.579L44.843,68.579c-1.378,0-2.567-0.828-3.095-2.013c-0.178-0.137-0.293-0.353-0.293-0.595        l-0.001-8.453c0-1.041-0.846-1.887-1.887-1.887c-0.414,0-0.75-0.336-0.75-0.75s0.336-0.75,0.75-0.75h6.438        c1.869,0,3.387,1.519,3.387,3.387l0.002,7.671c0,1.041,0.844,1.887,1.882,1.887c0,0,0,0,0,0h0.003h0        c0.414,0,0.75,0.335,0.75,0.749c0,0.415-0.335,0.75-0.749,0.751c0,0,0,0-0.001,0l0,0c-0.001,0-0.003,0-0.004,0L44.843,68.579z         M42.955,65.135c0.001,0.018,0.002,0.036,0.002,0.055c0,1.042,0.846,1.889,1.887,1.889l3.627-0.001        c-0.363-0.54-0.576-1.189-0.576-1.888l-0.002-7.671c0-1.041-0.845-1.887-1.883-1.887h-3.631        c0.363,0.54,0.576,1.189,0.576,1.887V65.135z" fill="#093260"/></g><g><path d="M45.998,55.631h-6.43c-0.414,0-0.75-0.335-0.75-0.749l-0.01-6.061c0-1.042-0.846-1.888-1.887-1.888        c-0.414,0-0.75-0.336-0.75-0.75s0.336-0.75,0.75-0.75h6.438c1.868,0,3.388,1.519,3.388,3.387l0.001,6.061        c0,0.199-0.079,0.39-0.22,0.53S46.196,55.631,45.998,55.631z M40.317,54.131h4.931l-0.001-5.31        c0-1.041-0.847-1.887-1.888-1.887h-3.626c0.363,0.54,0.576,1.189,0.576,1.887L40.317,54.131z" fill="#093260"/></g></g></g><g><g><g><path d="M45.293,35.356c0-5.418-2.556-9.809-5.71-9.809c-1.096,0-2.116,0.539-2.986,1.459        c1.633,1.729,2.725,4.816,2.725,8.35c0,3.535-1.092,6.623-2.725,8.35c0.87,0.92,1.891,1.459,2.986,1.459        C42.738,45.165,45.293,40.774,45.293,35.356z" fill="#1BC1A9"/></g><g><path d="M38.393,25.788c-0.644,0.24-1.252,0.645-1.796,1.219c1.633,1.729,2.725,4.816,2.725,8.35        c0,3.535-1.092,6.623-2.725,8.35c0.544,0.574,1.152,0.98,1.796,1.219c2.554-0.979,4.465-4.887,4.465-9.568        S40.947,26.766,38.393,25.788z" fill="#0CAFAF"/></g><g><g><path d="M40.306,25.633c0.074,0.018,0.148,0.037,0.223,0.059C40.455,25.67,40.38,25.651,40.306,25.633z" fill="#F26606"/></g><g><path d="M37.181,26.479c-0.166,0.133-0.328,0.277-0.484,0.438C36.854,26.758,37.015,26.612,37.181,26.479z" fill="#F26606"/></g><g><path d="M38.129,25.887c0.171-0.078,0.345-0.145,0.522-0.195C38.474,25.743,38.3,25.809,38.129,25.887z" fill="#F26606"/></g><g><path d="M38.875,25.633c0.223-0.047,0.448-0.08,0.678-0.082C39.323,25.555,39.097,25.586,38.875,25.633z" fill="#F26606"/></g><g><path d="M37.316,26.366c0.207-0.156,0.423-0.291,0.643-0.404C37.739,26.075,37.524,26.209,37.316,26.366z" fill="#F26606"/></g><g><path d="M41.051,25.887c0.056,0.025,0.114,0.045,0.169,0.074C41.166,25.932,41.107,25.913,41.051,25.887z" fill="#F26606"/></g><g><path d="M42.583,43.706c-0.002-0.002-0.003-0.006-0.007-0.008c-0.03,0.033-0.062,0.066-0.093,0.098         C42.515,43.762,42.55,43.739,42.583,43.706z" fill="#F26606"/></g><g><path d="M42.576,27.014c0.003-0.002,0.005-0.006,0.007-0.008c-0.032-0.033-0.067-0.057-0.099-0.09         C42.514,26.948,42.545,26.981,42.576,27.014z" fill="#F26606"/></g><g><path d="M39.628,25.551c-0.011,0-0.021-0.004-0.032-0.004c-0.002,0-0.003,0-0.006,0         C39.603,25.547,39.615,25.551,39.628,25.551z" fill="#F26606"/></g><g><path d="M41.865,26.366c0.047,0.035,0.09,0.076,0.136,0.113C41.955,26.442,41.912,26.401,41.865,26.366z" fill="#F26606"/></g><g><path d="M41.865,44.346c0.047-0.035,0.09-0.076,0.136-0.113C41.955,44.27,41.911,44.311,41.865,44.346z" fill="#F26606"/></g><g><path d="M41.051,44.825c0.056-0.025,0.114-0.045,0.17-0.074C41.166,44.78,41.107,44.799,41.051,44.825z" fill="#F26606"/></g><g><path d="M39.59,45.165c0.003,0,0.004,0,0.006,0c0.011,0,0.021-0.004,0.032-0.004         C39.616,45.161,39.603,45.165,39.59,45.165z" fill="#F26606"/></g><g><path d="M40.306,45.079c0.074-0.016,0.148-0.037,0.223-0.059C40.455,45.04,40.38,45.061,40.306,45.079z" fill="#F26606"/></g><g><path d="M39.552,45.161c-0.23-0.002-0.455-0.035-0.678-0.082C39.097,45.125,39.323,45.159,39.552,45.161z" fill="#F26606"/></g><g><path d="M37.958,44.75c-0.22-0.113-0.435-0.248-0.643-0.406C37.524,44.502,37.739,44.637,37.958,44.75z" fill="#F26606"/></g><g><path d="M36.697,43.795c0.157,0.16,0.318,0.305,0.484,0.439C37.015,44.1,36.853,43.954,36.697,43.795z" fill="#F26606"/></g><g><path d="M38.652,45.02c-0.178-0.051-0.352-0.115-0.522-0.195C38.3,44.905,38.474,44.969,38.652,45.02z" fill="#F26606"/></g><g><path d="M39.322,35.356c0-3.529-1.089-6.613-2.719-8.342c-1.628,1.729-2.717,4.812-2.717,8.342         s1.089,6.613,2.717,8.342C38.233,41.969,39.322,38.885,39.322,35.356z" fill="#109BAD"/></g><g><path d="M38.097,29.317c-0.764,1.664-1.225,3.756-1.225,6.039c0,2.285,0.461,4.375,1.225,6.039         c0.764-1.664,1.225-3.754,1.225-6.039C39.322,33.073,38.861,30.981,38.097,29.317z" fill="#0E7987"/></g></g><g><path d="M39.583,45.915c-1.262,0-2.483-0.585-3.531-1.694c-0.273-0.289-0.273-0.741,0-1.03        c1.554-1.644,2.52-4.646,2.52-7.834c0-3.187-0.965-6.189-2.52-7.834c-0.273-0.29-0.273-0.742,0-1.03        c1.048-1.108,2.269-1.694,3.531-1.694c3.623,0,6.46,4.638,6.46,10.559S43.206,45.915,39.583,45.915z M37.633,43.646        c0.508,0.411,1.173,0.768,1.95,0.768c2.688,0,4.96-4.148,4.96-9.059s-2.271-9.059-4.96-9.059        c-0.777,0-1.442,0.357-1.951,0.768c1.538,1.984,2.439,5.016,2.439,8.291C40.072,38.632,39.17,41.664,37.633,43.646z" fill="#093260"/></g><g><g><path d="M40.529,26.442c-0.069,0-0.14-0.009-0.209-0.03l-0.187-0.049c-0.345-0.082-0.577-0.39-0.577-0.729         c0-0.057,0.006-0.116,0.02-0.174c0.096-0.403,0.5-0.651,0.903-0.557c0.086,0.021,0.172,0.043,0.258,0.068         c0.328,0.095,0.542,0.394,0.542,0.719c0,0.069-0.009,0.14-0.03,0.209C41.154,26.229,40.854,26.442,40.529,26.442z" fill="#093260"/></g><g><path d="M36.697,27.667c-0.19,0-0.38-0.072-0.526-0.216c-0.294-0.29-0.299-0.762-0.01-1.058         c0.178-0.183,0.363-0.348,0.552-0.499c0.326-0.259,0.796-0.206,1.054,0.117c0.111,0.139,0.165,0.304,0.165,0.468         c0,0.22-0.096,0.438-0.281,0.586c-0.145,0.116-0.285,0.243-0.421,0.381C37.082,27.593,36.89,27.667,36.697,27.667z" fill="#093260"/></g><g><path d="M38.13,26.637c-0.285,0-0.557-0.163-0.683-0.438c-0.046-0.101-0.068-0.207-0.068-0.311         c0-0.285,0.162-0.558,0.438-0.684c0.206-0.094,0.415-0.173,0.628-0.234c0.397-0.114,0.813,0.116,0.927,0.515         c0.02,0.069,0.029,0.139,0.029,0.208c0,0.326-0.215,0.625-0.544,0.72c-0.142,0.041-0.28,0.094-0.417,0.156         C38.34,26.616,38.234,26.637,38.13,26.637z" fill="#093260"/></g><g><path d="M38.874,26.383c-0.347,0-0.659-0.242-0.733-0.596c-0.011-0.052-0.016-0.104-0.016-0.155         c0-0.347,0.242-0.659,0.596-0.733c0.307-0.065,0.57-0.096,0.826-0.098c0.002,0,0.004,0,0.006,0c0.41,0,0.745,0.33,0.75,0.74         c0.005,0.413-0.324,0.752-0.737,0.76c-0.182,0.003-0.36,0.029-0.536,0.066C38.977,26.378,38.925,26.383,38.874,26.383z" fill="#093260"/></g><g><path d="M37.316,27.116c-0.228,0-0.452-0.103-0.6-0.299c-0.249-0.331-0.183-0.8,0.147-1.05         c0.236-0.179,0.489-0.337,0.75-0.472c0.368-0.189,0.821-0.045,1.01,0.323c0.057,0.11,0.083,0.228,0.083,0.343         c0,0.272-0.148,0.534-0.406,0.667c-0.183,0.094-0.361,0.207-0.535,0.336l0,0c0,0-0.001,0-0.001,0.001         C37.631,27.067,37.473,27.116,37.316,27.116z" fill="#093260"/></g><g><path d="M41.22,26.711c-0.12,0-0.241-0.028-0.354-0.089l0.017-0.031l0.233-0.677l-0.376,0.655         c-0.276-0.125-0.439-0.398-0.439-0.683c0-0.104,0.021-0.21,0.068-0.311c0.171-0.377,0.618-0.544,0.993-0.371         c0.096,0.039,0.155,0.065,0.212,0.095c0.252,0.135,0.396,0.395,0.396,0.662c0,0.12-0.028,0.241-0.089,0.353         C41.746,26.568,41.487,26.711,41.22,26.711z" fill="#093260"/></g><g><path d="M42.484,44.541c-0.17,0-0.34-0.057-0.478-0.172c0,0,0-0.001-0.001-0.001l0,0         c0,0-0.001-0.001-0.002-0.001l0,0c-0.017-0.014-0.033-0.029-0.048-0.045c0,0,0,0,0,0c0,0,0,0-0.001,0v0         c-0.243-0.245-0.285-0.614-0.12-0.899l0,0c0-0.001,0-0.002,0.001-0.002v0c0.032-0.054,0.071-0.105,0.117-0.151         c0.001-0.001,0.003-0.003,0.005-0.005l0.064-0.068c0.226-0.248,0.589-0.316,0.89-0.165c0.1,0.05,0.19,0.125,0.259,0.213         c0.23,0.291,0.215,0.714-0.05,0.987c-0.018,0.018-0.086,0.08-0.105,0.097c-0.002,0.002-0.004,0.004-0.007,0.006         C42.863,44.47,42.673,44.541,42.484,44.541z" fill="#093260"/></g><g><path d="M42.576,27.764c-0.205,0-0.408-0.084-0.555-0.245l-0.071-0.076c0,0,0,0-0.001-0.001         c-0.004-0.004-0.009-0.01-0.012-0.012c-0.282-0.3-0.27-0.772,0.028-1.057c0.298-0.284,0.77-0.276,1.057,0.021l0,0         c0.031,0.025,0.064,0.055,0.098,0.089c0.271,0.279,0.282,0.714,0.036,1.005c-0.047,0.057-0.105,0.109-0.166,0.15         C42.864,27.723,42.72,27.764,42.576,27.764z" fill="#093260"/></g><g><path d="M39.628,26.301c-0.008,0.003-0.031,0-0.049-0.002c-0.029-0.002-0.061-0.005-0.084-0.009         c-0.001,0-0.002,0-0.003,0c-0.414,0-0.701-0.332-0.701-0.746c0-0.415,0.385-0.747,0.799-0.747         c0.026,0.005,0.072,0.003,0.11,0.007c0.01,0.001,0.021,0.002,0.031,0.003c0.41,0.004,0.695,0.335,0.695,0.747         C40.427,25.969,40.042,26.301,39.628,26.301z" fill="#093260"/></g><g><path d="M41.967,27.22c-0.152,0-0.306-0.05-0.438-0.158c-0.006-0.005-0.068-0.058-0.075-0.063         c-0.202-0.152-0.313-0.392-0.313-0.631c0-0.153,0.046-0.307,0.143-0.436c0.249-0.331,0.698-0.416,1.031-0.167         c0.042,0.031,0.082,0.065,0.121,0.1c0.178,0.154,0.275,0.382,0.275,0.608c0,0.166-0.052,0.331-0.164,0.464         C42.395,27.12,42.181,27.22,41.967,27.22z" fill="#093260"/></g><g><path d="M41.865,45.096c-0.227,0-0.451-0.103-0.598-0.297c-0.25-0.329-0.186-0.797,0.142-1.048l0.045-0.038v0         l0,0L42,44.233l0.472,0.583c-0.076,0.065-0.116,0.099-0.157,0.13C42.18,45.047,42.022,45.096,41.865,45.096z" fill="#093260"/></g><g><path d="M41.103,45.549c-0.296,0-0.586-0.162-0.707-0.441c-0.045-0.105-0.067-0.214-0.067-0.32         c0-0.271,0.145-0.523,0.412-0.645c0.009-0.004,0.085-0.037,0.095-0.041c0.373-0.152,0.846-0.007,1.015,0.355         c0.054,0.117,0.081,0.238,0.081,0.355c0,0.247-0.12,0.475-0.36,0.601c-0.056,0.029-0.113,0.054-0.17,0.077         C41.304,45.53,41.203,45.549,41.103,45.549z" fill="#093260"/></g><g><path d="M39.596,45.915H39.59c-0.414,0-0.75-0.336-0.75-0.75c0-0.388,0.295-0.708,0.673-0.746         c0.007-0.001,0.015-0.001,0.021-0.002c0.032-0.003,0.066-0.006,0.093-0.006c0.414,0,0.75,0.336,0.75,0.75         c0,0.388-0.295,0.708-0.673,0.746l0,0C39.668,45.912,39.628,45.915,39.596,45.915z" fill="#093260"/></g><g><path d="M40.306,45.829c-0.344,0-0.653-0.238-0.731-0.586c-0.089-0.4,0.16-0.799,0.559-0.894l0.125-0.032         c0.011-0.003,0.023-0.006,0.034-0.009c0.009-0.002,0.019-0.005,0.028-0.008l0,0.002c0.385-0.065,0.788,0.15,0.893,0.525         c0.111,0.396-0.081,0.799-0.477,0.913c-0.092,0.027-0.185,0.053-0.276,0.072C40.409,45.823,40.356,45.829,40.306,45.829z" fill="#093260"/></g><g><path d="M39.572,45.911c-0.007,0-0.013-0.001-0.02,0c-0.002,0-0.004,0-0.006,0l0,0l0,0         c-0.003,0-0.007,0-0.009,0l0,0c-0.253-0.003-0.513-0.034-0.816-0.098c-0.354-0.074-0.596-0.386-0.596-0.733         c0-0.051,0.005-0.103,0.016-0.155c0.085-0.406,0.485-0.667,0.888-0.58c0.207,0.043,0.375,0.064,0.528,0.066         c0.002,0,0.003,0,0.005,0h0.01c0.414,0,0.75,0.336,0.75,0.75S39.986,45.911,39.572,45.911z" fill="#093260"/></g><g><path d="M37.958,45.5c-0.116,0-0.233-0.027-0.343-0.083c-0.262-0.135-0.515-0.295-0.753-0.476         c-0.194-0.147-0.296-0.371-0.296-0.597c0-0.158,0.05-0.318,0.153-0.454c0.251-0.33,0.721-0.394,1.051-0.143         c0.172,0.131,0.35,0.243,0.532,0.337c0.258,0.133,0.406,0.395,0.406,0.667c0,0.116-0.027,0.233-0.083,0.343         C38.492,45.353,38.229,45.5,37.958,45.5z" fill="#093260"/></g><g><path d="M37.181,44.985c-0.166,0-0.333-0.055-0.472-0.167c-0.187-0.152-0.368-0.314-0.545-0.495         c0,0-0.001-0.001-0.002-0.002c-0.29-0.295-0.286-0.77,0.009-1.06c0.294-0.291,0.769-0.288,1.06,0.007         c0.137,0.138,0.278,0.266,0.423,0.384c0.183,0.148,0.277,0.365,0.277,0.583c0,0.166-0.055,0.333-0.167,0.472         C37.615,44.89,37.399,44.985,37.181,44.985z" fill="#093260"/></g><g><path d="M38.652,45.77c-0.068,0-0.138-0.009-0.207-0.029c-0.216-0.062-0.427-0.14-0.635-0.237         c-0.272-0.128-0.432-0.398-0.432-0.681c0-0.106,0.023-0.214,0.071-0.317c0.175-0.375,0.621-0.537,0.998-0.361         c0.134,0.063,0.271,0.113,0.41,0.153c0.329,0.094,0.543,0.394,0.544,0.72c0,0.068-0.009,0.138-0.029,0.208         C39.279,45.556,38.979,45.77,38.652,45.77z" fill="#093260"/></g><g><path d="M36.603,44.448L36.603,44.448c-0.207,0-0.404-0.085-0.546-0.236         c-1.829-1.942-2.921-5.252-2.921-8.856s1.092-6.914,2.921-8.856c0.283-0.3,0.807-0.302,1.092,0         c1.83,1.941,2.923,5.252,2.923,8.856s-1.093,6.915-2.923,8.856C37.007,44.363,36.81,44.448,36.603,44.448z M36.604,28.196         c-1.227,1.72-1.967,4.369-1.967,7.16s0.74,5.44,1.967,7.16c1.228-1.719,1.968-4.369,1.968-7.16S37.831,29.916,36.604,28.196z         " fill="#093260"/></g></g></g><g><g><path d="M47.734,37.795c5.417,0,9.809,2.557,9.809,5.711c0,1.096-0.54,2.115-1.46,2.986        c-1.728-1.633-4.815-2.725-8.349-2.725c-3.535,0-6.623,1.092-8.35,2.725c-0.92-0.871-1.459-1.891-1.459-2.986        C37.925,40.352,42.316,37.795,47.734,37.795z" fill="#1BC1A9"/></g><g><path d="M57.301,44.696c-0.239,0.645-0.644,1.252-1.219,1.797c-1.728-1.633-4.815-2.725-8.349-2.725        c-3.535,0-6.623,1.092-8.35,2.725c-0.575-0.545-0.98-1.152-1.219-1.797c0.978-2.553,4.887-4.465,9.568-4.465        S56.324,42.143,57.301,44.696z" fill="#0CAFAF"/></g><g><g><path d="M57.456,42.784c-0.017-0.074-0.037-0.148-0.059-0.223C57.418,42.635,57.439,42.709,57.456,42.784z" fill="#F26606"/></g><g><path d="M56.611,45.909c-0.133,0.166-0.278,0.328-0.438,0.484C56.332,46.235,56.478,46.075,56.611,45.909z" fill="#F26606"/></g><g><path d="M57.203,44.959c0.078-0.17,0.144-0.344,0.194-0.521C57.346,44.616,57.281,44.79,57.203,44.959z" fill="#F26606"/></g><g><path d="M57.456,44.215c0.049-0.223,0.081-0.449,0.083-0.678C57.535,43.766,57.504,43.993,57.456,44.215z" fill="#F26606"/></g><g><path d="M56.723,45.774c0.157-0.207,0.291-0.424,0.405-0.643C57.015,45.35,56.88,45.565,56.723,45.774z" fill="#F26606"/></g><g><path d="M57.203,42.038c-0.025-0.055-0.046-0.113-0.074-0.168C57.157,41.924,57.177,41.983,57.203,42.038z" fill="#F26606"/></g><g><path d="M39.384,40.506c0.002,0.002,0.006,0.004,0.008,0.008c-0.033,0.029-0.066,0.061-0.098,0.092         C39.327,40.575,39.351,40.54,39.384,40.506z" fill="#F26606"/></g><g><path d="M56.076,40.514c0.002-0.004,0.005-0.006,0.007-0.008c0.034,0.033,0.058,0.068,0.09,0.1         C56.141,40.575,56.108,40.543,56.076,40.514z" fill="#F26606"/></g><g><path d="M57.539,43.461c0,0.01,0.004,0.021,0.004,0.031c0,0.002-0.001,0.004,0,0.006         C57.542,43.487,57.539,43.475,57.539,43.461z" fill="#F26606"/></g><g><path d="M56.723,41.225c-0.034-0.047-0.075-0.09-0.112-0.137C56.648,41.135,56.689,41.178,56.723,41.225z" fill="#F26606"/></g><g><path d="M38.744,41.225c0.035-0.047,0.076-0.09,0.113-0.137C38.82,41.135,38.779,41.178,38.744,41.225z" fill="#F26606"/></g><g><path d="M38.264,42.038c0.025-0.055,0.046-0.113,0.075-0.17C38.31,41.924,38.29,41.983,38.264,42.038z" fill="#F26606"/></g><g><path d="M37.925,43.499c0-0.002,0-0.004,0-0.006c0-0.01,0.004-0.021,0.004-0.031         C37.928,43.473,37.925,43.487,37.925,43.499z" fill="#F26606"/></g><g><path d="M38.011,42.784c0.017-0.074,0.037-0.148,0.059-0.223C38.048,42.635,38.028,42.709,38.011,42.784z" fill="#F26606"/></g><g><path d="M37.929,43.538c0.002,0.23,0.034,0.455,0.082,0.678C37.963,43.993,37.931,43.766,37.929,43.538z" fill="#F26606"/></g><g><path d="M38.339,45.131c0.113,0.219,0.248,0.434,0.404,0.643C38.587,45.565,38.453,45.35,38.339,45.131z" fill="#F26606"/></g><g><path d="M39.294,46.393c-0.16-0.158-0.305-0.318-0.439-0.484C38.99,46.075,39.135,46.237,39.294,46.393z" fill="#F26606"/></g><g><path d="M38.07,44.438c0.051,0.178,0.115,0.352,0.194,0.521C38.185,44.79,38.121,44.616,38.07,44.438z" fill="#F26606"/></g><g><path d="M47.734,43.768c3.529,0,6.613,1.09,8.342,2.719c-1.729,1.627-4.812,2.717-8.342,2.717         s-6.614-1.09-8.342-2.717C41.12,44.858,44.205,43.768,47.734,43.768z" fill="#109BAD"/></g><g><path d="M53.773,44.993c-1.664,0.764-3.756,1.225-6.039,1.225c-2.285,0-4.375-0.461-6.039-1.225         c1.664-0.764,3.754-1.225,6.039-1.225C50.017,43.768,52.109,44.229,53.773,44.993z" fill="#0E7987"/></g></g><g><path d="M56.083,47.243c-0.186,0-0.371-0.068-0.515-0.205c-1.645-1.554-4.646-2.52-7.833-2.52        c-3.189,0-6.191,0.965-7.834,2.52c-0.289,0.273-0.742,0.274-1.031,0c-1.108-1.049-1.693-2.27-1.693-3.531        c0-3.623,4.638-6.461,10.559-6.461s10.559,2.838,10.559,6.461c0,1.26-0.586,2.481-1.694,3.531        C56.454,47.174,56.268,47.243,56.083,47.243z M47.734,43.018c3.275,0,6.306,0.901,8.29,2.438        c0.411-0.509,0.769-1.174,0.769-1.95c0-2.689-4.148-4.961-9.059-4.961s-9.059,2.272-9.059,4.961        c0,0.776,0.357,1.442,0.768,1.95C41.426,43.919,44.458,43.018,47.734,43.018z" fill="#093260"/></g><g><g><path d="M57.455,43.534c-0.344,0-0.653-0.237-0.731-0.586c-0.013-0.059-0.03-0.118-0.047-0.178         c-0.021-0.07-0.03-0.14-0.03-0.209c0-0.325,0.213-0.625,0.542-0.719c0.395-0.116,0.813,0.113,0.929,0.512         c0.026,0.089,0.05,0.178,0.07,0.268c0.012,0.055,0.018,0.11,0.018,0.165c0,0.343-0.237,0.653-0.586,0.731         C57.564,43.528,57.509,43.534,57.455,43.534z" fill="#093260"/></g><g><path d="M56.172,47.143c-0.194,0-0.388-0.075-0.534-0.224c-0.29-0.294-0.287-0.767,0.005-1.058         c0.139-0.138,0.266-0.277,0.382-0.421c0.258-0.324,0.729-0.376,1.054-0.117c0.185,0.148,0.281,0.366,0.281,0.586         c0,0.164-0.054,0.33-0.165,0.468c-0.151,0.189-0.317,0.374-0.5,0.552C56.55,47.072,56.361,47.143,56.172,47.143z" fill="#093260"/></g><g><path d="M57.202,45.709c-0.105,0-0.211-0.022-0.313-0.068c-0.275-0.126-0.437-0.398-0.437-0.682         c0-0.105,0.022-0.211,0.068-0.313c0.062-0.135,0.114-0.273,0.155-0.414c0.114-0.399,0.531-0.628,0.927-0.515         c0.329,0.094,0.543,0.394,0.544,0.72c0,0.068-0.009,0.138-0.029,0.208c-0.061,0.214-0.14,0.424-0.234,0.629         C57.758,45.548,57.486,45.709,57.202,45.709z" fill="#093260"/></g><g><path d="M57.456,44.965c-0.053,0-0.107-0.005-0.161-0.018c-0.351-0.077-0.59-0.388-0.589-0.733         c0-0.053,0.006-0.106,0.018-0.16c0.041-0.186,0.062-0.364,0.065-0.53c0.007-0.41,0.341-0.737,0.75-0.737         c0.003,0,0.006,0,0.01,0c0.413,0.005,0.744,0.343,0.74,0.756c-0.002,0.262-0.035,0.534-0.101,0.832         C58.111,44.727,57.801,44.965,57.456,44.965z" fill="#093260"/></g><g><path d="M56.723,46.524c-0.158,0-0.316-0.049-0.452-0.152c-0.33-0.249-0.396-0.719-0.147-1.049         c0.073-0.097,0.14-0.195,0.201-0.294l0,0c0.049-0.081,0.096-0.163,0.139-0.245c0.191-0.368,0.642-0.509,1.011-0.318         c0.367,0.191,0.51,0.643,0.32,1.01c-0.06,0.115-0.124,0.229-0.193,0.341c0,0,0,0,0,0c-0.085,0.139-0.179,0.276-0.28,0.41         C57.173,46.422,56.949,46.524,56.723,46.524z" fill="#093260"/></g><g><path d="M57.164,42.76c-0.269,0-0.519-0.142-0.642-0.406c-0.004-0.009-0.038-0.087-0.042-0.096         c-0.041-0.1-0.061-0.207-0.061-0.313c0-0.292,0.148-0.581,0.415-0.705c0.364-0.171,0.775-0.072,0.96,0.285         c0.026,0.051,0.049,0.104,0.071,0.156c0.041,0.098,0.06,0.202,0.06,0.305c0,0.294-0.159,0.582-0.436,0.704         C57.383,42.737,57.272,42.76,57.164,42.76z" fill="#093260"/></g><g><path d="M39.317,41.308c-0.189,0-0.376-0.066-0.515-0.205c-0.291-0.289-0.324-0.729-0.042-1.023         c0.016-0.019,0.083-0.093,0.093-0.104c0.293-0.293,0.768-0.293,1.061,0c0.09,0.069,0.098,0.102,0.149,0.203         c0.151,0.304,0.08,0.672-0.175,0.897c-0.015,0.015-0.03,0.029-0.046,0.042c-0.001,0.001-0.003,0.003-0.005,0.005l0,0         c-0.003,0.002-0.005,0.004-0.008,0.007l0.001,0.001l-0.001-0.001C39.682,41.247,39.499,41.308,39.317,41.308z" fill="#093260"/></g><g><path d="M56.167,41.354c-0.121,0-0.242-0.029-0.352-0.088l0,0c-0.001-0.001-0.002-0.001-0.003-0.002h0         c-0.061-0.033-0.119-0.076-0.17-0.128c-0.001-0.001-0.003-0.003-0.004-0.004v0l-0.066-0.062         c-0.249-0.226-0.316-0.589-0.167-0.89c0.043-0.085,0.106-0.168,0.178-0.231c0.293-0.261,0.742-0.253,1.023,0.021         c0.018,0.018,0.082,0.087,0.098,0.106c0.002,0.002,0.004,0.005,0.006,0.007c0,0.001,0.001,0.001,0.002,0.002         c0,0,0,0,0.001,0.001c0,0,0,0,0.001,0.001l0,0c0,0,0.001,0.001,0.001,0.001c0,0,0,0,0,0c0.253,0.272,0.271,0.689,0.044,0.977         c0,0.001,0,0.001-0.001,0.001c0,0-0.001,0-0.001,0.002c0,0,0,0-0.001,0.001c0,0,0,0,0,0         c-0.018,0.022-0.037,0.043-0.057,0.063c0,0,0,0.001-0.001,0.001l0,0h0C56.55,41.281,56.358,41.354,56.167,41.354z" fill="#093260"/></g><g><path d="M57.541,44.247c-0.278,0-0.541-0.155-0.67-0.415c-0.039-0.078-0.063-0.162-0.074-0.248         c-0.002-0.02-0.005-0.045-0.006-0.069c-0.001-0.019-0.002-0.038-0.002-0.054c0,0,0,0,0-0.001c0-0.414,0.336-0.75,0.75-0.75         c0.387,0,0.706,0.293,0.746,0.67c0.005,0.037,0.008,0.079,0.008,0.111c0,0.026-0.001,0.053-0.004,0.079         c-0.03,0.298-0.238,0.558-0.535,0.645C57.683,44.237,57.612,44.247,57.541,44.247z" fill="#093260"/></g><g><path d="M56.724,41.975c-0.231,0-0.459-0.107-0.606-0.308l0.006-0.005l0.535-0.517l-0.635,0.408         c-0.109-0.138-0.162-0.302-0.162-0.464c0-0.222,0.097-0.441,0.285-0.589c0.324-0.258,0.797-0.202,1.053,0.123         c0.065,0.076,0.099,0.117,0.13,0.16c0.097,0.133,0.144,0.288,0.144,0.441c0,0.231-0.107,0.46-0.308,0.606         C57.032,41.928,56.877,41.975,56.724,41.975z" fill="#093260"/></g><g><path d="M38.749,41.922c-0.159,0-0.316-0.048-0.444-0.151c-0.192-0.154-0.3-0.371-0.3-0.589         c0-0.14,0.044-0.281,0.139-0.408c0.01-0.013,0.083-0.103,0.094-0.115c0.266-0.31,0.756-0.379,1.071-0.12         c0.187,0.154,0.289,0.369,0.288,0.584c0,0.149-0.049,0.299-0.152,0.429c-0.006,0.008-0.063,0.076-0.07,0.084         C39.218,41.82,38.981,41.922,38.749,41.922z" fill="#093260"/></g><g><path d="M38.264,42.788c-0.106,0-0.213-0.022-0.315-0.07c-0.273-0.127-0.435-0.398-0.434-0.681         c0-0.105,0.022-0.213,0.07-0.315l0.68,0.316l-0.663-0.356c0.022-0.053,0.045-0.106,0.072-0.159         c0.19-0.367,0.644-0.511,1.011-0.321c0.258,0.133,0.406,0.396,0.405,0.667c0,0.116-0.027,0.233-0.084,0.343         c-0.004,0.009-0.057,0.132-0.061,0.141C38.817,42.627,38.546,42.788,38.264,42.788z" fill="#093260"/></g><g><path d="M37.923,44.289c-0.414,0-0.748-0.376-0.748-0.791v-0.006c0-0.036,0.004-0.082,0.009-0.122l0,0         c0.053-0.391,0.404-0.675,0.795-0.652c0.394,0.027,0.7,0.348,0.7,0.743c0,0.019-0.001,0.04-0.003,0.062h0h0         c-0.001,0.014-0.002,0.028-0.004,0.042c0,0.003,0,0.007-0.001,0.011c0,0.001,0,0.002,0,0.004         C38.67,43.994,38.337,44.289,37.923,44.289z" fill="#093260"/></g><g><path d="M38.012,43.534c-0.054,0-0.109-0.006-0.164-0.018c-0.349-0.078-0.586-0.388-0.586-0.731         c0-0.054,0.006-0.109,0.018-0.165c0.02-0.089,0.044-0.179,0.07-0.268c0.115-0.398,0.533-0.627,0.929-0.512         c0.328,0.095,0.542,0.394,0.542,0.719c0,0.069-0.009,0.14-0.03,0.209c-0.017,0.06-0.034,0.119-0.047,0.178         C38.665,43.296,38.355,43.534,38.012,43.534z" fill="#093260"/></g><g><path d="M38.01,44.965c-0.346,0-0.657-0.241-0.732-0.592c-0.063-0.296-0.096-0.565-0.099-0.821         c0-0.002,0-0.005,0-0.008l0,0c-0.003-0.414,0.33-0.753,0.744-0.756c0.392-0.009,0.753,0.33,0.756,0.744         c0.001,0.156,0.022,0.328,0.065,0.526c0.011,0.053,0.017,0.106,0.017,0.158c0,0.346-0.24,0.657-0.592,0.733         C38.116,44.96,38.062,44.965,38.01,44.965z" fill="#093260"/></g><g><path d="M38.744,46.524c-0.229,0-0.454-0.104-0.601-0.301c-0.179-0.239-0.337-0.491-0.47-0.747         c-0.057-0.11-0.084-0.227-0.084-0.343c0-0.271,0.147-0.534,0.405-0.667c0.366-0.191,0.82-0.047,1.011,0.321         c0.095,0.183,0.208,0.363,0.339,0.538c0.101,0.135,0.149,0.292,0.149,0.449c0,0.229-0.104,0.454-0.301,0.601         C39.058,46.475,38.9,46.524,38.744,46.524z" fill="#093260"/></g><g><path d="M39.294,47.143c-0.189,0-0.379-0.071-0.525-0.215c0,0-0.001-0.001-0.001-0.001l0,0h0         c-0.177-0.175-0.34-0.355-0.491-0.541c-0.001-0.001-0.002-0.003-0.004-0.004c-0.112-0.139-0.167-0.306-0.167-0.472         c0-0.218,0.095-0.435,0.277-0.583c0.321-0.262,0.793-0.212,1.055,0.11c0.118,0.145,0.244,0.285,0.384,0.423         c0.294,0.291,0.298,0.765,0.007,1.06C39.682,47.068,39.488,47.143,39.294,47.143z" fill="#093260"/></g><g><path d="M38.265,45.709c-0.283,0-0.553-0.16-0.681-0.434c-0.096-0.206-0.174-0.417-0.235-0.632         c-0.02-0.069-0.029-0.139-0.029-0.208c0-0.326,0.215-0.625,0.544-0.72c0.396-0.114,0.812,0.116,0.927,0.515         c0.04,0.14,0.091,0.277,0.153,0.411c0.047,0.103,0.07,0.21,0.07,0.317c0,0.282-0.161,0.552-0.434,0.68         C38.479,45.687,38.371,45.709,38.265,45.709z" fill="#093260"/></g><g><path d="M47.734,49.954c-3.604,0-6.914-1.092-8.856-2.921c-0.15-0.142-0.236-0.339-0.236-0.546         c0-0.207,0.085-0.404,0.235-0.546c1.941-1.83,5.252-2.923,8.856-2.923c3.604,0,6.914,1.093,8.856,2.923         c0.151,0.142,0.236,0.339,0.236,0.546c0,0.207-0.085,0.404-0.236,0.546C54.647,48.862,51.336,49.954,47.734,49.954z          M40.574,46.486c1.72,1.227,4.369,1.967,7.16,1.967c2.789,0,5.438-0.74,7.159-1.967c-1.72-1.228-4.369-1.968-7.159-1.968         C44.943,44.518,42.293,45.259,40.574,46.486z" fill="#093260"/></g></g></g></g><g><path d="M41.507,46.178c-1.27,1.27-3.326,1.27-4.596,0l0,0c-1.27-1.27-1.27-3.326,0-4.596l6.937-6.936      c1.269-1.27,3.325-1.27,4.595,0l0,0c1.27,1.27,1.27,3.326,0,4.594L41.507,46.178z" fill="#1BC1A9"/></g><g><path d="M46.07,37.02c-1.269-1.27-3.326-1.27-4.595,0l-4.563,4.562c-1.27,1.27-1.27,3.326,0,4.596      s3.326,1.27,4.596,0l4.562-4.564C47.339,40.346,47.339,38.288,46.07,37.02z" fill="#0CAFAF"/></g><g><path d="M39.209,47.88c-1.068,0-2.073-0.416-2.828-1.172c-0.756-0.755-1.172-1.76-1.172-2.828      s0.416-2.073,1.172-2.828l6.937-6.936c1.51-1.512,4.145-1.511,5.655,0c0.756,0.755,1.172,1.76,1.172,2.828      c0,1.068-0.417,2.072-1.172,2.827l-6.935,6.937C41.282,47.464,40.278,47.88,39.209,47.88z M46.145,34.445      c-0.667,0-1.294,0.26-1.766,0.732l-6.937,6.936c-0.472,0.472-0.732,1.1-0.732,1.768s0.26,1.295,0.732,1.768      c0.944,0.944,2.591,0.944,3.535,0l6.936-6.938c0.473-0.472,0.732-1.099,0.732-1.766c0-0.667-0.26-1.295-0.732-1.768      S46.812,34.445,46.145,34.445z" fill="#093260"/></g><g><path d="M45.345,43.09c-0.192,0-0.384-0.073-0.53-0.22c-0.293-0.293-0.293-0.768,0-1.061      c0.975-0.975,0.975-2.561,0-3.535s-2.561-0.975-3.535,0c-0.293,0.293-0.768,0.293-1.061,0s-0.293-0.768,0-1.061      c1.56-1.56,4.097-1.56,5.656,0s1.56,4.097,0,5.656C45.729,43.017,45.537,43.09,45.345,43.09z" fill="#093260"/></g><g><path d="M41.446,46.989c-0.192,0-0.384-0.073-0.53-0.219c-0.293-0.293-0.293-0.768,0-1.061      c0.974-0.975,0.974-2.561,0-3.535c-0.974-0.974-2.56-0.973-3.534,0c-0.293,0.292-0.768,0.292-1.061-0.001      c-0.292-0.293-0.292-0.768,0.001-1.061c1.56-1.557,4.096-1.557,5.655,0c1.559,1.56,1.559,4.097,0,5.657      C41.83,46.916,41.638,46.989,41.446,46.989z" fill="#093260"/></g></g></g></g></svg>